<?xml version="1.0" standalone="no"?>
<!DOCTYPE svg PUBLIC "-//W3C//DTD SVG 1.1//EN"
"http://www.w3.org/Graphics/SVG/1.1/DTD/svg11.dtd">

<svg width="686" height="381" view_box="0 0 686 381"
xmlns="http://www.w3.org/2000/svg"
xmlns:link="http://www.w3.org/1999/xlink">\n\n<desc>Généré par Mocodo 2.3.7 le Fri, 29 May 2020 00:19:13</desc>

<rect id="frame" x="0" y="0" width="686" height="381" fill="#ffffbf" stroke="none" stroke-width="0"/>

<!-- Association De l'appellation -->
<line x1="492" y1="152" x2="623" y2="152" stroke="#f46d43" stroke-width="2"/>
<text x="542" y="169.0" fill="#3288bd" font-family="Verdana" font-size="12">1,1</text>
<line x1="623" y1="287" x2="623" y2="152" stroke="#f46d43" stroke-width="2"/>
<text x="628.0" y="237" fill="#3288bd" font-family="Verdana" font-size="12">0,N</text>
<g id="association-De l'appellation">
	<path d="M 663 127 a 14 14 90 0 1 14 14 V 152 h -108 V 141 a 14 14 90 0 1 14 -14" fill="#fdae61" stroke="#fdae61" stroke-width="0"/>
	<path d="M 677 152.0 v 11 a 14 14 90 0 1 -14 14 H 583 a 14 14 90 0 1 -14 -14 V 152.0 H 108" fill="#fee08b" stroke="#fee08b" stroke-width="0"/>
	<rect x="569" y="127" width="108" height="50" fill="none" rx="14" stroke="#f46d43" stroke-width="2"/>
	<line x1="569" y1="152" x2="677" y2="152" stroke="#f46d43" stroke-width="1"/>
	<text x="576" y="144.7" fill="#000000" font-family="Verdana" font-size="12">De l'appellation</text>
</g>

<!-- Association De la cuvée -->
<line x1="492" y1="152" x2="492" y2="43" stroke="#f46d43" stroke-width="2"/>
<text x="497.0" y="85" fill="#3288bd" font-family="Verdana" font-size="12">0,1</text>
<line x1="623" y1="43" x2="492" y2="43" stroke="#f46d43" stroke-width="2"/>
<text x="566" y="60.0" fill="#3288bd" font-family="Verdana" font-size="12">0,N</text>
<g id="association-De la cuvée">
	<path d="M 521 18 a 14 14 90 0 1 14 14 V 43 h -86 V 32 a 14 14 90 0 1 14 -14" fill="#fdae61" stroke="#fdae61" stroke-width="0"/>
	<path d="M 535 43.0 v 11 a 14 14 90 0 1 -14 14 H 463 a 14 14 90 0 1 -14 -14 V 43.0 H 86" fill="#fee08b" stroke="#fee08b" stroke-width="0"/>
	<rect x="449" y="18" width="86" height="50" fill="none" rx="14" stroke="#f46d43" stroke-width="2"/>
	<line x1="449" y1="43" x2="535" y2="43" stroke="#f46d43" stroke-width="1"/>
	<text x="456" y="35.7" fill="#000000" font-family="Verdana" font-size="12">De la cuvée</text>
</g>

<!-- Association Admet pour stockage -->
<line x1="364" y1="287" x2="213" y2="287" stroke="#f46d43" stroke-width="2"/>
<text x="290" y="304.0" fill="#3288bd" font-family="Verdana" font-size="12">1,N</text>
<line x1="213" y1="152" x2="213" y2="287" stroke="#f46d43" stroke-width="2"/>
<text x="218.0" y="220" fill="#3288bd" font-family="Verdana" font-size="12">1,1</text>
<g id="association-Admet pour stockage">
	<path d="M 271 262 a 14 14 90 0 1 14 14 V 287 h -144 V 276 a 14 14 90 0 1 14 -14" fill="#fdae61" stroke="#fdae61" stroke-width="0"/>
	<path d="M 285 287.0 v 11 a 14 14 90 0 1 -14 14 H 155 a 14 14 90 0 1 -14 -14 V 287.0 H 144" fill="#fee08b" stroke="#fee08b" stroke-width="0"/>
	<rect x="141" y="262" width="144" height="50" fill="none" rx="14" stroke="#f46d43" stroke-width="2"/>
	<line x1="141" y1="287" x2="285" y2="287" stroke="#f46d43" stroke-width="1"/>
	<text x="148" y="279.7" fill="#000000" font-family="Verdana" font-size="12">Admet pour stockage</text>
</g>

<!-- Association Du domaine -->
<line x1="364" y1="287" x2="492" y2="287" stroke="#f46d43" stroke-width="2"/>
<text x="416" y="304.0" fill="#3288bd" font-family="Verdana" font-size="12">1,1</text>
<line x1="492" y1="152" x2="492" y2="287" stroke="#f46d43" stroke-width="2"/>
<text x="497.0" y="228" fill="#3288bd" font-family="Verdana" font-size="12">0,N</text>
<g id="association-Du domaine">
	<path d="M 522 262 a 14 14 90 0 1 14 14 V 287 h -88 V 276 a 14 14 90 0 1 14 -14" fill="#fdae61" stroke="#fdae61" stroke-width="0"/>
	<path d="M 536 287.0 v 11 a 14 14 90 0 1 -14 14 H 462 a 14 14 90 0 1 -14 -14 V 287.0 H 88" fill="#fee08b" stroke="#fee08b" stroke-width="0"/>
	<rect x="448" y="262" width="88" height="50" fill="none" rx="14" stroke="#f46d43" stroke-width="2"/>
	<line x1="448" y1="287" x2="536" y2="287" stroke="#f46d43" stroke-width="1"/>
	<text x="455" y="279.7" fill="#000000" font-family="Verdana" font-size="12">Du domaine</text>
</g>

<!-- Association Stocké à -->
<line x1="213" y1="152" x2="213" y2="43" stroke="#f46d43" stroke-width="2"/>
<text x="218.0" y="93" fill="#3288bd" font-family="Verdana" font-size="12">1,1</text>
<line x1="62" y1="43" x2="213" y2="43" stroke="#f46d43" stroke-width="2"/>
<text x="106" y="60.0" fill="#3288bd" font-family="Verdana" font-size="12">0,N</text>
<g id="association-Stocké à">
	<path d="M 233 18 a 14 14 90 0 1 14 14 V 43 h -68 V 32 a 14 14 90 0 1 14 -14" fill="#fdae61" stroke="#fdae61" stroke-width="0"/>
	<path d="M 247 43.0 v 11 a 14 14 90 0 1 -14 14 H 193 a 14 14 90 0 1 -14 -14 V 43.0 H 68" fill="#fee08b" stroke="#fee08b" stroke-width="0"/>
	<rect x="179" y="18" width="68" height="50" fill="none" rx="14" stroke="#f46d43" stroke-width="2"/>
	<line x1="179" y1="43" x2="247" y2="43" stroke="#f46d43" stroke-width="1"/>
	<text x="186" y="35.7" fill="#000000" font-family="Verdana" font-size="12">Stocké à</text>
</g>

<!-- Association Dans la région -->
<line x1="492" y1="152" x2="364" y2="152" stroke="#f46d43" stroke-width="2"/>
<text x="421" y="169.0" fill="#3288bd" font-family="Verdana" font-size="12">1,1</text>
<line x1="364" y1="43" x2="364" y2="152" stroke="#f46d43" stroke-width="2"/>
<text x="369.0" y="94" fill="#3288bd" font-family="Verdana" font-size="12">0,N</text>
<g id="association-Dans la région">
	<path d="M 401 127 a 14 14 90 0 1 14 14 V 152 h -102 V 141 a 14 14 90 0 1 14 -14" fill="#fdae61" stroke="#fdae61" stroke-width="0"/>
	<path d="M 415 152.0 v 11 a 14 14 90 0 1 -14 14 H 327 a 14 14 90 0 1 -14 -14 V 152.0 H 102" fill="#fee08b" stroke="#fee08b" stroke-width="0"/>
	<rect x="313" y="127" width="102" height="50" fill="none" rx="14" stroke="#f46d43" stroke-width="2"/>
	<line x1="313" y1="152" x2="415" y2="152" stroke="#f46d43" stroke-width="1"/>
	<text x="320" y="144.7" fill="#000000" font-family="Verdana" font-size="12">Dans la région</text>
</g>

<!-- Association A été dégustée -->
<line x1="213" y1="152" x2="62" y2="152" stroke="#f46d43" stroke-width="2"/>
<text x="139" y="169.0" fill="#3288bd" font-family="Verdana" font-size="12">0,N</text>
<line x1="62" y1="287" x2="62" y2="152" stroke="#f46d43" stroke-width="2"/>
<text x="67.0" y="237" fill="#3288bd" font-family="Verdana" font-size="12">1,1</text>
<g id="association-A été dégustée">
	<path d="M 101 127 a 14 14 90 0 1 14 14 V 152 h -106 V 141 a 14 14 90 0 1 14 -14" fill="#fdae61" stroke="#fdae61" stroke-width="0"/>
	<path d="M 115 152.0 v 11 a 14 14 90 0 1 -14 14 H 23 a 14 14 90 0 1 -14 -14 V 152.0 H 106" fill="#fee08b" stroke="#fee08b" stroke-width="0"/>
	<rect x="9" y="127" width="106" height="50" fill="none" rx="14" stroke="#f46d43" stroke-width="2"/>
	<line x1="9" y1="152" x2="115" y2="152" stroke="#f46d43" stroke-width="1"/>
	<text x="16" y="144.7" fill="#000000" font-family="Verdana" font-size="12">A été dégustée</text>
</g>

<!-- Entity Appellation -->
<g id="entity-Appellation">
	<g id="frame-Appellation">
		<rect x="578" y="245" width="90" height="25" fill="#abdda4" stroke="#abdda4" stroke-width="0"/>
		<rect x="578" y="270.0" width="90" height="59" fill="#e6f598" stroke="#e6f598" stroke-width="0"/>
		<rect x="578" y="245" width="90" height="84" fill="none" stroke="#66c2a5" stroke-width="2"/>
		<line x1="578" y1="270" x2="668" y2="270" stroke="#66c2a5" stroke-width="1"/>
	</g>
	<text x="589" y="262.7" fill="#000000" font-family="Verdana" font-size="12">Appellation</text>
	<text x="583" y="287.8" fill="#000000" font-family="Verdana" font-size="12">idAppellation</text>
	<line x1="583" y1="290" x2="662" y2="290" stroke="#000000" stroke-width="1"/>
	<text x="583" y="304.8" fill="#000000" font-family="Verdana" font-size="12">type</text>
	<text x="583" y="321.8" fill="#000000" font-family="Verdana" font-size="12">nom</text>
</g>

<!-- Entity Région -->
<g id="entity-Région">
	<g id="frame-Région">
		<rect x="332" y="9" width="64" height="25" fill="#abdda4" stroke="#abdda4" stroke-width="0"/>
		<rect x="332" y="34.0" width="64" height="43" fill="#e6f598" stroke="#e6f598" stroke-width="0"/>
		<rect x="332" y="9" width="64" height="68" fill="none" stroke="#66c2a5" stroke-width="2"/>
		<line x1="332" y1="34" x2="396" y2="34" stroke="#66c2a5" stroke-width="1"/>
	</g>
	<text x="343" y="26.7" fill="#000000" font-family="Verdana" font-size="12">Région</text>
	<text x="337" y="51.8" fill="#000000" font-family="Verdana" font-size="12">idRégion</text>
	<line x1="337" y1="54" x2="390" y2="54" stroke="#000000" stroke-width="1"/>
	<text x="337" y="68.8" fill="#000000" font-family="Verdana" font-size="12">nom</text>
</g>

<!-- Entity Site -->
<g id="entity-Site">
	<g id="frame-Site">
		<rect x="23" y="9" width="78" height="25" fill="#abdda4" stroke="#abdda4" stroke-width="0"/>
		<rect x="23" y="34.0" width="78" height="43" fill="#e6f598" stroke="#e6f598" stroke-width="0"/>
		<rect x="23" y="9" width="78" height="68" fill="none" stroke="#66c2a5" stroke-width="2"/>
		<line x1="23" y1="34" x2="101" y2="34" stroke="#66c2a5" stroke-width="1"/>
	</g>
	<text x="50" y="26.7" fill="#000000" font-family="Verdana" font-size="12">Site</text>
	<text x="28" y="51.8" fill="#000000" font-family="Verdana" font-size="12">idSite</text>
	<line x1="28" y1="54" x2="63" y2="54" stroke="#000000" stroke-width="1"/>
	<text x="28" y="68.8" fill="#000000" font-family="Verdana" font-size="12">description</text>
</g>

<!-- Entity Domaine -->
<g id="entity-Domaine">
	<g id="frame-Domaine">
		<rect x="447" y="93" width="90" height="25" fill="#abdda4" stroke="#abdda4" stroke-width="0"/>
		<rect x="447" y="118.0" width="90" height="93" fill="#e6f598" stroke="#e6f598" stroke-width="0"/>
		<rect x="447" y="93" width="90" height="118" fill="none" stroke="#66c2a5" stroke-width="2"/>
		<line x1="447" y1="118" x2="537" y2="118" stroke="#66c2a5" stroke-width="1"/>
	</g>
	<text x="465" y="110.7" fill="#000000" font-family="Verdana" font-size="12">Domaine</text>
	<text x="452" y="135.7" fill="#000000" font-family="Verdana" font-size="12">idDomaine</text>
	<line x1="452" y1="138" x2="517" y2="138" stroke="#000000" stroke-width="1"/>
	<text x="452" y="152.8" fill="#000000" font-family="Verdana" font-size="12">nom</text>
	<text x="452" y="169.8" fill="#000000" font-family="Verdana" font-size="12">idRégion</text>
	<text x="452" y="186.8" fill="#000000" font-family="Verdana" font-size="12">idCuvée</text>
	<text x="452" y="203.8" fill="#000000" font-family="Verdana" font-size="12">idAppellation</text>
</g>

<!-- Entity Cuvée -->
<g id="entity-Cuvée">
	<g id="frame-Cuvée">
		<rect x="593" y="9" width="60" height="25" fill="#abdda4" stroke="#abdda4" stroke-width="0"/>
		<rect x="593" y="34.0" width="60" height="43" fill="#e6f598" stroke="#e6f598" stroke-width="0"/>
		<rect x="593" y="9" width="60" height="68" fill="none" stroke="#66c2a5" stroke-width="2"/>
		<line x1="593" y1="34" x2="653" y2="34" stroke="#66c2a5" stroke-width="1"/>
	</g>
	<text x="604" y="26.7" fill="#000000" font-family="Verdana" font-size="12">Cuvée</text>
	<text x="598" y="51.8" fill="#000000" font-family="Verdana" font-size="12">idCuvée</text>
	<line x1="598" y1="54" x2="647" y2="54" stroke="#000000" stroke-width="1"/>
	<text x="598" y="68.8" fill="#000000" font-family="Verdana" font-size="12">nom</text>
</g>

<!-- Entity Stockage -->
<g id="entity-Stockage">
	<g id="frame-Stockage">
		<rect x="166" y="101" width="94" height="25" fill="#abdda4" stroke="#abdda4" stroke-width="0"/>
		<rect x="166" y="126.0" width="94" height="77" fill="#e6f598" stroke="#e6f598" stroke-width="0"/>
		<rect x="166" y="101" width="94" height="102" fill="none" stroke="#66c2a5" stroke-width="2"/>
		<line x1="166" y1="126" x2="260" y2="126" stroke="#66c2a5" stroke-width="1"/>
	</g>
	<text x="185" y="118.7" fill="#000000" font-family="Verdana" font-size="12">Stockage</text>
	<text x="171" y="143.7" fill="#000000" font-family="Verdana" font-size="12">idStockage</text>
	<line x1="171" y1="146" x2="238" y2="146" stroke="#000000" stroke-width="1"/>
	<text x="171" y="160.8" fill="#000000" font-family="Verdana" font-size="12">idLotBouteille</text>
	<line x1="171" y1="163" x2="254" y2="163" stroke="#000000" stroke-width="1"/>
	<text x="171" y="177.8" fill="#000000" font-family="Verdana" font-size="12">idSite</text>
	<line x1="171" y1="180" x2="206" y2="180" stroke="#000000" stroke-width="1"/>
	<text x="171" y="194.8" fill="#000000" font-family="Verdana" font-size="12">nombre</text>
</g>

<!-- Entity LotBouteille -->
<g id="entity-LotBouteille">
	<g id="frame-LotBouteille">
		<rect x="317" y="202" width="94" height="25" fill="#abdda4" stroke="#abdda4" stroke-width="0"/>
		<rect x="317" y="227.0" width="94" height="145" fill="#e6f598" stroke="#e6f598" stroke-width="0"/>
		<rect x="317" y="202" width="94" height="170" fill="none" stroke="#66c2a5" stroke-width="2"/>
		<line x1="317" y1="227" x2="411" y2="227" stroke="#66c2a5" stroke-width="1"/>
	</g>
	<text x="328" y="219.7" fill="#000000" font-family="Verdana" font-size="12">LotBouteille</text>
	<text x="322" y="244.7" fill="#000000" font-family="Verdana" font-size="12">idLotBouteille</text>
	<line x1="322" y1="247" x2="405" y2="247" stroke="#000000" stroke-width="1"/>
	<text x="322" y="261.7" fill="#000000" font-family="Verdana" font-size="12">volume</text>
	<text x="322" y="278.7" fill="#000000" font-family="Verdana" font-size="12">degré</text>
	<text x="322" y="295.8" fill="#000000" font-family="Verdana" font-size="12">prix</text>
	<text x="322" y="312.8" fill="#000000" font-family="Verdana" font-size="12">couleur</text>
	<text x="322" y="329.8" fill="#000000" font-family="Verdana" font-size="12">commentaire</text>
	<text x="322" y="346.8" fill="#000000" font-family="Verdana" font-size="12">millésime</text>
	<text x="322" y="363.8" fill="#000000" font-family="Verdana" font-size="12">idDomaine</text>
</g>

<!-- Entity Dégustation -->
<g id="entity-Dégustation">
	<g id="frame-Dégustation">
		<rect x="15" y="245" width="94" height="25" fill="#abdda4" stroke="#abdda4" stroke-width="0"/>
		<rect x="15" y="270.0" width="94" height="59" fill="#e6f598" stroke="#e6f598" stroke-width="0"/>
		<rect x="15" y="245" width="94" height="84" fill="none" stroke="#66c2a5" stroke-width="2"/>
		<line x1="15" y1="270" x2="109" y2="270" stroke="#66c2a5" stroke-width="1"/>
	</g>
	<text x="25" y="262.7" fill="#000000" font-family="Verdana" font-size="12">Dégustation</text>
	<text x="20" y="287.8" fill="#000000" font-family="Verdana" font-size="12">idDégustation</text>
	<line x1="20" y1="290" x2="104" y2="290" stroke="#000000" stroke-width="1"/>
	<text x="20" y="304.8" fill="#000000" font-family="Verdana" font-size="12">date</text>
	<text x="20" y="321.8" fill="#000000" font-family="Verdana" font-size="12">idStockage</text>
</g>
</svg>