<?xml version="1.0" standalone="no"?>
<!DOCTYPE svg PUBLIC "-//W3C//DTD SVG 1.1//EN"
"http://www.w3.org/Graphics/SVG/1.1/DTD/svg11.dtd">

<svg width="663" height="389" view_box="0 0 663 389"
xmlns="http://www.w3.org/2000/svg"
xmlns:link="http://www.w3.org/1999/xlink">\n\n<desc>Généré par Mocodo 2.3.7 le Wed, 10 Jun 2020 05:56:47</desc>

<rect id="frame" x="0" y="0" width="663" height="389" fill="#ffffbf" stroke="none" stroke-width="0"/>

<!-- Association De l'appellation -->
<line x1="185" y1="229" x2="185" y2="338" stroke="#f46d43" stroke-width="2"/>
<text x="190.0" y="305" fill="#3288bd" font-family="Verdana" font-size="12">1,1</text>
<line x1="54" y1="338" x2="185" y2="338" stroke="#f46d43" stroke-width="2"/>
<text x="104" y="355.0" fill="#3288bd" font-family="Verdana" font-size="12">0,N</text>
<g id="association-De l'appellation">
	<path d="M 225 313 a 14 14 90 0 1 14 14 V 338 h -108 V 327 a 14 14 90 0 1 14 -14" fill="#fdae61" stroke="#fdae61" stroke-width="0"/>
	<path d="M 239 338.0 v 11 a 14 14 90 0 1 -14 14 H 145 a 14 14 90 0 1 -14 -14 V 338.0 H 108" fill="#fee08b" stroke="#fee08b" stroke-width="0"/>
	<rect x="131" y="313" width="108" height="50" fill="none" rx="14" stroke="#f46d43" stroke-width="2"/>
	<line x1="131" y1="338" x2="239" y2="338" stroke="#f46d43" stroke-width="1"/>
	<text x="138" y="330.7" fill="#000000" font-family="Verdana" font-size="12">De l'appellation</text>
</g>

<!-- Association Admet pour stockage -->
<line x1="313" y1="94" x2="464" y2="94" stroke="#f46d43" stroke-width="2"/>
<text x="365" y="111.0" fill="#3288bd" font-family="Verdana" font-size="12">1,N</text>
<line x1="464" y1="229" x2="464" y2="94" stroke="#f46d43" stroke-width="2"/>
<text x="469.0" y="179" fill="#3288bd" font-family="Verdana" font-size="12">1,1</text>
<g id="association-Admet pour stockage">
	<path d="M 522 69 a 14 14 90 0 1 14 14 V 94 h -144 V 83 a 14 14 90 0 1 14 -14" fill="#fdae61" stroke="#fdae61" stroke-width="0"/>
	<path d="M 536 94.0 v 11 a 14 14 90 0 1 -14 14 H 406 a 14 14 90 0 1 -14 -14 V 94.0 H 144" fill="#fee08b" stroke="#fee08b" stroke-width="0"/>
	<rect x="392" y="69" width="144" height="50" fill="none" rx="14" stroke="#f46d43" stroke-width="2"/>
	<line x1="392" y1="94" x2="536" y2="94" stroke="#f46d43" stroke-width="1"/>
	<text x="399" y="86.7" fill="#000000" font-family="Verdana" font-size="12">Admet pour stockage</text>
</g>

<!-- Association De la cuvée -->
<line x1="185" y1="229" x2="54" y2="229" stroke="#f46d43" stroke-width="2"/>
<text x="113" y="246.0" fill="#3288bd" font-family="Verdana" font-size="12">0,N</text>
<line x1="54" y1="94" x2="54" y2="229" stroke="#f46d43" stroke-width="2"/>
<text x="59.0" y="145" fill="#3288bd" font-family="Verdana" font-size="12">0,N</text>
<g id="association-De la cuvée">
	<path d="M 83 204 a 14 14 90 0 1 14 14 V 229 h -86 V 218 a 14 14 90 0 1 14 -14" fill="#fdae61" stroke="#fdae61" stroke-width="0"/>
	<path d="M 97 229.0 v 11 a 14 14 90 0 1 -14 14 H 25 a 14 14 90 0 1 -14 -14 V 229.0 H 86" fill="#fee08b" stroke="#fee08b" stroke-width="0"/>
	<rect x="11" y="204" width="86" height="50" fill="none" rx="14" stroke="#f46d43" stroke-width="2"/>
	<line x1="11" y1="229" x2="97" y2="229" stroke="#f46d43" stroke-width="1"/>
	<text x="18" y="221.7" fill="#000000" font-family="Verdana" font-size="12">De la cuvée</text>
</g>

<!-- Association Du domaine -->
<line x1="313" y1="94" x2="185" y2="94" stroke="#f46d43" stroke-width="2"/>
<text x="240" y="111.0" fill="#3288bd" font-family="Verdana" font-size="12">1,1</text>
<line x1="185" y1="229" x2="185" y2="94" stroke="#f46d43" stroke-width="2"/>
<text x="190.0" y="162" fill="#3288bd" font-family="Verdana" font-size="12">0,N</text>
<g id="association-Du domaine">
	<path d="M 215 69 a 14 14 90 0 1 14 14 V 94 h -88 V 83 a 14 14 90 0 1 14 -14" fill="#fdae61" stroke="#fdae61" stroke-width="0"/>
	<path d="M 229 94.0 v 11 a 14 14 90 0 1 -14 14 H 155 a 14 14 90 0 1 -14 -14 V 94.0 H 88" fill="#fee08b" stroke="#fee08b" stroke-width="0"/>
	<rect x="141" y="69" width="88" height="50" fill="none" rx="14" stroke="#f46d43" stroke-width="2"/>
	<line x1="141" y1="94" x2="229" y2="94" stroke="#f46d43" stroke-width="1"/>
	<text x="148" y="86.7" fill="#000000" font-family="Verdana" font-size="12">Du domaine</text>
</g>

<!-- Association Stocké à -->
<line x1="464" y1="229" x2="607" y2="229" stroke="#f46d43" stroke-width="2"/>
<text x="516" y="246.0" fill="#3288bd" font-family="Verdana" font-size="12">1,1</text>
<line x1="607" y1="94" x2="607" y2="229" stroke="#f46d43" stroke-width="2"/>
<text x="612.0" y="145" fill="#3288bd" font-family="Verdana" font-size="12">0,N</text>
<g id="association-Stocké à">
	<path d="M 627 204 a 14 14 90 0 1 14 14 V 229 h -68 V 218 a 14 14 90 0 1 14 -14" fill="#fdae61" stroke="#fdae61" stroke-width="0"/>
	<path d="M 641 229.0 v 11 a 14 14 90 0 1 -14 14 H 587 a 14 14 90 0 1 -14 -14 V 229.0 H 68" fill="#fee08b" stroke="#fee08b" stroke-width="0"/>
	<rect x="573" y="204" width="68" height="50" fill="none" rx="14" stroke="#f46d43" stroke-width="2"/>
	<line x1="573" y1="229" x2="641" y2="229" stroke="#f46d43" stroke-width="1"/>
	<text x="580" y="221.7" fill="#000000" font-family="Verdana" font-size="12">Stocké à</text>
</g>

<!-- Association Dans la région -->
<line x1="185" y1="229" x2="313" y2="229" stroke="#f46d43" stroke-width="2"/>
<text x="235" y="246.0" fill="#3288bd" font-family="Verdana" font-size="12">1,1</text>
<line x1="313" y1="338" x2="313" y2="229" stroke="#f46d43" stroke-width="2"/>
<text x="318.0" y="296" fill="#3288bd" font-family="Verdana" font-size="12">0,N</text>
<g id="association-Dans la région">
	<path d="M 350 204 a 14 14 90 0 1 14 14 V 229 h -102 V 218 a 14 14 90 0 1 14 -14" fill="#fdae61" stroke="#fdae61" stroke-width="0"/>
	<path d="M 364 229.0 v 11 a 14 14 90 0 1 -14 14 H 276 a 14 14 90 0 1 -14 -14 V 229.0 H 102" fill="#fee08b" stroke="#fee08b" stroke-width="0"/>
	<rect x="262" y="204" width="102" height="50" fill="none" rx="14" stroke="#f46d43" stroke-width="2"/>
	<line x1="262" y1="229" x2="364" y2="229" stroke="#f46d43" stroke-width="1"/>
	<text x="269" y="221.7" fill="#000000" font-family="Verdana" font-size="12">Dans la région</text>
</g>

<!-- Association A été dégustée -->
<line x1="464" y1="229" x2="464" y2="338" stroke="#f46d43" stroke-width="2"/>
<text x="469.0" y="288" fill="#3288bd" font-family="Verdana" font-size="12">0,N</text>
<line x1="607" y1="338" x2="464" y2="338" stroke="#f46d43" stroke-width="2"/>
<text x="534" y="355.0" fill="#3288bd" font-family="Verdana" font-size="12">1,1</text>
<g id="association-A été dégustée">
	<path d="M 503 313 a 14 14 90 0 1 14 14 V 338 h -106 V 327 a 14 14 90 0 1 14 -14" fill="#fdae61" stroke="#fdae61" stroke-width="0"/>
	<path d="M 517 338.0 v 11 a 14 14 90 0 1 -14 14 H 425 a 14 14 90 0 1 -14 -14 V 338.0 H 106" fill="#fee08b" stroke="#fee08b" stroke-width="0"/>
	<rect x="411" y="313" width="106" height="50" fill="none" rx="14" stroke="#f46d43" stroke-width="2"/>
	<line x1="411" y1="338" x2="517" y2="338" stroke="#f46d43" stroke-width="1"/>
	<text x="418" y="330.7" fill="#000000" font-family="Verdana" font-size="12">A été dégustée</text>
</g>

<!-- Entity Appellation -->
<g id="entity-Appellation">
	<g id="frame-Appellation">
		<rect x="9" y="296" width="90" height="25" fill="#abdda4" stroke="#abdda4" stroke-width="0"/>
		<rect x="9" y="321.0" width="90" height="59" fill="#e6f598" stroke="#e6f598" stroke-width="0"/>
		<rect x="9" y="296" width="90" height="84" fill="none" stroke="#66c2a5" stroke-width="2"/>
		<line x1="9" y1="321" x2="99" y2="321" stroke="#66c2a5" stroke-width="1"/>
	</g>
	<text x="20" y="313.7" fill="#000000" font-family="Verdana" font-size="12">Appellation</text>
	<text x="14" y="338.8" fill="#000000" font-family="Verdana" font-size="12">idAppellation</text>
	<line x1="14" y1="341" x2="93" y2="341" stroke="#000000" stroke-width="1"/>
	<text x="14" y="355.8" fill="#000000" font-family="Verdana" font-size="12">type</text>
	<text x="14" y="372.8" fill="#000000" font-family="Verdana" font-size="12">nom</text>
</g>

<!-- Entity Région -->
<g id="entity-Région">
	<g id="frame-Région">
		<rect x="281" y="304" width="64" height="25" fill="#abdda4" stroke="#abdda4" stroke-width="0"/>
		<rect x="281" y="329.0" width="64" height="43" fill="#e6f598" stroke="#e6f598" stroke-width="0"/>
		<rect x="281" y="304" width="64" height="68" fill="none" stroke="#66c2a5" stroke-width="2"/>
		<line x1="281" y1="329" x2="345" y2="329" stroke="#66c2a5" stroke-width="1"/>
	</g>
	<text x="292" y="321.7" fill="#000000" font-family="Verdana" font-size="12">Région</text>
	<text x="286" y="346.8" fill="#000000" font-family="Verdana" font-size="12">idRégion</text>
	<line x1="286" y1="349" x2="339" y2="349" stroke="#000000" stroke-width="1"/>
	<text x="286" y="363.8" fill="#000000" font-family="Verdana" font-size="12">nom</text>
</g>

<!-- Entity Cuvée -->
<g id="entity-Cuvée">
	<g id="frame-Cuvée">
		<rect x="24" y="60" width="60" height="25" fill="#abdda4" stroke="#abdda4" stroke-width="0"/>
		<rect x="24" y="85.0" width="60" height="43" fill="#e6f598" stroke="#e6f598" stroke-width="0"/>
		<rect x="24" y="60" width="60" height="68" fill="none" stroke="#66c2a5" stroke-width="2"/>
		<line x1="24" y1="85" x2="84" y2="85" stroke="#66c2a5" stroke-width="1"/>
	</g>
	<text x="35" y="77.7" fill="#000000" font-family="Verdana" font-size="12">Cuvée</text>
	<text x="29" y="102.8" fill="#000000" font-family="Verdana" font-size="12">idCuvée</text>
	<line x1="29" y1="105" x2="78" y2="105" stroke="#000000" stroke-width="1"/>
	<text x="29" y="119.8" fill="#000000" font-family="Verdana" font-size="12">nom</text>
</g>

<!-- Entity Domaine -->
<g id="entity-Domaine">
	<g id="frame-Domaine">
		<rect x="140" y="170" width="90" height="25" fill="#abdda4" stroke="#abdda4" stroke-width="0"/>
		<rect x="140" y="195.0" width="90" height="93" fill="#e6f598" stroke="#e6f598" stroke-width="0"/>
		<rect x="140" y="170" width="90" height="118" fill="none" stroke="#66c2a5" stroke-width="2"/>
		<line x1="140" y1="195" x2="230" y2="195" stroke="#66c2a5" stroke-width="1"/>
	</g>
	<text x="158" y="187.7" fill="#000000" font-family="Verdana" font-size="12">Domaine</text>
	<text x="145" y="212.7" fill="#000000" font-family="Verdana" font-size="12">idDomaine</text>
	<line x1="145" y1="215" x2="210" y2="215" stroke="#000000" stroke-width="1"/>
	<text x="145" y="229.8" fill="#000000" font-family="Verdana" font-size="12">nom</text>
	<text x="145" y="246.8" fill="#000000" font-family="Verdana" font-size="12">idRégion</text>
	<text x="145" y="263.8" fill="#000000" font-family="Verdana" font-size="12">idCuvée</text>
	<text x="145" y="280.8" fill="#000000" font-family="Verdana" font-size="12">idAppellation</text>
</g>

<!-- Entity Site -->
<g id="entity-Site">
	<g id="frame-Site">
		<rect x="568" y="60" width="78" height="25" fill="#abdda4" stroke="#abdda4" stroke-width="0"/>
		<rect x="568" y="85.0" width="78" height="43" fill="#e6f598" stroke="#e6f598" stroke-width="0"/>
		<rect x="568" y="60" width="78" height="68" fill="none" stroke="#66c2a5" stroke-width="2"/>
		<line x1="568" y1="85" x2="646" y2="85" stroke="#66c2a5" stroke-width="1"/>
	</g>
	<text x="595" y="77.7" fill="#000000" font-family="Verdana" font-size="12">Site</text>
	<text x="573" y="102.8" fill="#000000" font-family="Verdana" font-size="12">idSite</text>
	<line x1="573" y1="105" x2="608" y2="105" stroke="#000000" stroke-width="1"/>
	<text x="573" y="119.8" fill="#000000" font-family="Verdana" font-size="12">description</text>
</g>

<!-- Entity Stockage -->
<g id="entity-Stockage">
	<g id="frame-Stockage">
		<rect x="417" y="187" width="94" height="25" fill="#abdda4" stroke="#abdda4" stroke-width="0"/>
		<rect x="417" y="212.0" width="94" height="59" fill="#e6f598" stroke="#e6f598" stroke-width="0"/>
		<rect x="417" y="187" width="94" height="84" fill="none" stroke="#66c2a5" stroke-width="2"/>
		<line x1="417" y1="212" x2="511" y2="212" stroke="#66c2a5" stroke-width="1"/>
	</g>
	<text x="436" y="204.7" fill="#000000" font-family="Verdana" font-size="12">Stockage</text>
	<text x="422" y="229.8" fill="#000000" font-family="Verdana" font-size="12">idLotBouteille</text>
	<line x1="422" y1="232" x2="505" y2="232" stroke="#000000" stroke-width="1"/>
	<text x="422" y="246.8" fill="#000000" font-family="Verdana" font-size="12">idSite</text>
	<line x1="422" y1="249" x2="457" y2="249" stroke="#000000" stroke-width="1"/>
	<text x="422" y="263.8" fill="#000000" font-family="Verdana" font-size="12">nombre</text>
</g>

<!-- Entity LotBouteille -->
<g id="entity-LotBouteille">
	<g id="frame-LotBouteille">
		<rect x="266" y="9" width="94" height="25" fill="#abdda4" stroke="#abdda4" stroke-width="0"/>
		<rect x="266" y="34.0" width="94" height="145" fill="#e6f598" stroke="#e6f598" stroke-width="0"/>
		<rect x="266" y="9" width="94" height="170" fill="none" stroke="#66c2a5" stroke-width="2"/>
		<line x1="266" y1="34" x2="360" y2="34" stroke="#66c2a5" stroke-width="1"/>
	</g>
	<text x="277" y="26.7" fill="#000000" font-family="Verdana" font-size="12">LotBouteille</text>
	<text x="271" y="51.7" fill="#000000" font-family="Verdana" font-size="12">idLotBouteille</text>
	<line x1="271" y1="54" x2="354" y2="54" stroke="#000000" stroke-width="1"/>
	<text x="271" y="68.7" fill="#000000" font-family="Verdana" font-size="12">volume</text>
	<text x="271" y="85.7" fill="#000000" font-family="Verdana" font-size="12">degré</text>
	<text x="271" y="102.8" fill="#000000" font-family="Verdana" font-size="12">prix</text>
	<text x="271" y="119.8" fill="#000000" font-family="Verdana" font-size="12">couleur</text>
	<text x="271" y="136.8" fill="#000000" font-family="Verdana" font-size="12">commentaire</text>
	<text x="271" y="153.8" fill="#000000" font-family="Verdana" font-size="12">millésime</text>
	<text x="271" y="170.8" fill="#000000" font-family="Verdana" font-size="12">idDomaine</text>
</g>

<!-- Entity Dégustation -->
<g id="entity-Dégustation">
	<g id="frame-Dégustation">
		<rect x="560" y="296" width="94" height="25" fill="#abdda4" stroke="#abdda4" stroke-width="0"/>
		<rect x="560" y="321.0" width="94" height="59" fill="#e6f598" stroke="#e6f598" stroke-width="0"/>
		<rect x="560" y="296" width="94" height="84" fill="none" stroke="#66c2a5" stroke-width="2"/>
		<line x1="560" y1="321" x2="654" y2="321" stroke="#66c2a5" stroke-width="1"/>
	</g>
	<text x="570" y="313.7" fill="#000000" font-family="Verdana" font-size="12">Dégustation</text>
	<text x="565" y="338.8" fill="#000000" font-family="Verdana" font-size="12">idDégustation</text>
	<line x1="565" y1="341" x2="649" y2="341" stroke="#000000" stroke-width="1"/>
	<text x="565" y="355.8" fill="#000000" font-family="Verdana" font-size="12">date</text>
	<text x="565" y="372.8" fill="#000000" font-family="Verdana" font-size="12">idStockage</text>
</g>
</svg>