<?xml version="1.0" standalone="no"?>
<!DOCTYPE svg PUBLIC "-//W3C//DTD SVG 1.1//EN"
"http://www.w3.org/Graphics/SVG/1.1/DTD/svg11.dtd">

<svg width="802" height="372" view_box="0 0 802 372"
xmlns="http://www.w3.org/2000/svg"
xmlns:link="http://www.w3.org/1999/xlink">\n\n<desc>Généré par Mocodo 2.3.7 le Sun, 31 May 2020 11:02:00</desc>

<rect id="frame" x="0" y="0" width="802" height="372" fill="#f7f7f7" stroke="none" stroke-width="0"/>

<!-- Association Commentaires lors de l'achat -->
<line x1="363" y1="287" x2="363" y2="161" stroke="#8073ac" stroke-width="2"/>
<text x="368.0" y="203" fill="#b35806" font-family="Verdana" font-size="12">0,1</text>
<line x1="363" y1="60" x2="363" y2="161" stroke="#8073ac" stroke-width="2"/>
<text x="368.0" y="119" fill="#b35806" font-family="Verdana" font-size="12">1,1</text>
<g id="association-Commentaires lors de l'achat">
	<path d="M 445 136 a 14 14 90 0 1 14 14 V 161 h -192 V 150 a 14 14 90 0 1 14 -14" fill="#b2abd2" stroke="#b2abd2" stroke-width="0"/>
	<path d="M 459 161.0 v 11 a 14 14 90 0 1 -14 14 H 281 a 14 14 90 0 1 -14 -14 V 161.0 H 192" fill="#d8daeb" stroke="#d8daeb" stroke-width="0"/>
	<rect x="267" y="136" width="192" height="50" fill="none" rx="14" stroke="#8073ac" stroke-width="2"/>
	<line x1="267" y1="161" x2="459" y2="161" stroke="#8073ac" stroke-width="1"/>
	<text x="274" y="153.7" fill="#000000" font-family="Verdana" font-size="12">Commentaires lors de l'achat</text>
</g>

<!-- Association De la cuvée -->
<line x1="189" y1="161" x2="189" y2="60" stroke="#8073ac" stroke-width="2"/>
<text x="194.0" y="102" fill="#b35806" font-family="Verdana" font-size="12">0,1</text>
<line x1="60" y1="60" x2="189" y2="60" stroke="#8073ac" stroke-width="2"/>
<text x="103" y="77.0" fill="#b35806" font-family="Verdana" font-size="12">0,N</text>
<g id="association-De la cuvée">
	<path d="M 218 35 a 14 14 90 0 1 14 14 V 60 h -86 V 49 a 14 14 90 0 1 14 -14" fill="#b2abd2" stroke="#b2abd2" stroke-width="0"/>
	<path d="M 232 60.0 v 11 a 14 14 90 0 1 -14 14 H 160 a 14 14 90 0 1 -14 -14 V 60.0 H 86" fill="#d8daeb" stroke="#d8daeb" stroke-width="0"/>
	<rect x="146" y="35" width="86" height="50" fill="none" rx="14" stroke="#8073ac" stroke-width="2"/>
	<line x1="146" y1="60" x2="232" y2="60" stroke="#8073ac" stroke-width="1"/>
	<text x="153" y="52.7" fill="#000000" font-family="Verdana" font-size="12">De la cuvée</text>
</g>

<!-- Association Admet pour stockage -->
<line x1="363" y1="287" x2="538" y2="287" stroke="#8073ac" stroke-width="2"/>
<text x="423" y="304.0" fill="#b35806" font-family="Verdana" font-size="12">1,N</text>
<line x1="538" y1="161" x2="538" y2="287" stroke="#8073ac" stroke-width="2"/>
<text x="543.0" y="229" fill="#b35806" font-family="Verdana" font-size="12">1,1</text>
<g id="association-Admet pour stockage">
	<path d="M 596 262 a 14 14 90 0 1 14 14 V 287 h -144 V 276 a 14 14 90 0 1 14 -14" fill="#b2abd2" stroke="#b2abd2" stroke-width="0"/>
	<path d="M 610 287.0 v 11 a 14 14 90 0 1 -14 14 H 480 a 14 14 90 0 1 -14 -14 V 287.0 H 144" fill="#d8daeb" stroke="#d8daeb" stroke-width="0"/>
	<rect x="466" y="262" width="144" height="50" fill="none" rx="14" stroke="#8073ac" stroke-width="2"/>
	<line x1="466" y1="287" x2="610" y2="287" stroke="#8073ac" stroke-width="1"/>
	<text x="473" y="279.7" fill="#000000" font-family="Verdana" font-size="12">Admet pour stockage</text>
</g>

<!-- Association Du domaine -->
<line x1="189" y1="161" x2="189" y2="287" stroke="#8073ac" stroke-width="2"/>
<text x="194.0" y="229" fill="#b35806" font-family="Verdana" font-size="12">0,N</text>
<line x1="363" y1="287" x2="189" y2="287" stroke="#8073ac" stroke-width="2"/>
<text x="282" y="304.0" fill="#b35806" font-family="Verdana" font-size="12">1,1</text>
<g id="association-Du domaine">
	<path d="M 219 262 a 14 14 90 0 1 14 14 V 287 h -88 V 276 a 14 14 90 0 1 14 -14" fill="#b2abd2" stroke="#b2abd2" stroke-width="0"/>
	<path d="M 233 287.0 v 11 a 14 14 90 0 1 -14 14 H 159 a 14 14 90 0 1 -14 -14 V 287.0 H 88" fill="#d8daeb" stroke="#d8daeb" stroke-width="0"/>
	<rect x="145" y="262" width="88" height="50" fill="none" rx="14" stroke="#8073ac" stroke-width="2"/>
	<line x1="145" y1="287" x2="233" y2="287" stroke="#8073ac" stroke-width="1"/>
	<text x="152" y="279.7" fill="#000000" font-family="Verdana" font-size="12">Du domaine</text>
</g>

<!-- Association Stocké à -->
<line x1="708" y1="287" x2="708" y2="161" stroke="#8073ac" stroke-width="2"/>
<text x="713.0" y="237" fill="#b35806" font-family="Verdana" font-size="12">0,N</text>
<line x1="538" y1="161" x2="708" y2="161" stroke="#8073ac" stroke-width="2"/>
<text x="590" y="178.0" fill="#b35806" font-family="Verdana" font-size="12">1,1</text>
<g id="association-Stocké à">
	<path d="M 728 136 a 14 14 90 0 1 14 14 V 161 h -68 V 150 a 14 14 90 0 1 14 -14" fill="#b2abd2" stroke="#b2abd2" stroke-width="0"/>
	<path d="M 742 161.0 v 11 a 14 14 90 0 1 -14 14 H 688 a 14 14 90 0 1 -14 -14 V 161.0 H 68" fill="#d8daeb" stroke="#d8daeb" stroke-width="0"/>
	<rect x="674" y="136" width="68" height="50" fill="none" rx="14" stroke="#8073ac" stroke-width="2"/>
	<line x1="674" y1="161" x2="742" y2="161" stroke="#8073ac" stroke-width="1"/>
	<text x="681" y="153.7" fill="#000000" font-family="Verdana" font-size="12">Stocké à</text>
</g>

<!-- Association Dans la région -->
<line x1="189" y1="161" x2="60" y2="161" stroke="#8073ac" stroke-width="2"/>
<text x="117" y="178.0" fill="#b35806" font-family="Verdana" font-size="12">1,1</text>
<line x1="60" y1="287" x2="60" y2="161" stroke="#8073ac" stroke-width="2"/>
<text x="65.0" y="237" fill="#b35806" font-family="Verdana" font-size="12">0,N</text>
<g id="association-Dans la région">
	<path d="M 97 136 a 14 14 90 0 1 14 14 V 161 h -102 V 150 a 14 14 90 0 1 14 -14" fill="#b2abd2" stroke="#b2abd2" stroke-width="0"/>
	<path d="M 111 161.0 v 11 a 14 14 90 0 1 -14 14 H 23 a 14 14 90 0 1 -14 -14 V 161.0 H 102" fill="#d8daeb" stroke="#d8daeb" stroke-width="0"/>
	<rect x="9" y="136" width="102" height="50" fill="none" rx="14" stroke="#8073ac" stroke-width="2"/>
	<line x1="9" y1="161" x2="111" y2="161" stroke="#8073ac" stroke-width="1"/>
	<text x="16" y="153.7" fill="#000000" font-family="Verdana" font-size="12">Dans la région</text>
</g>

<!-- Association A été dégustée -->
<line x1="708" y1="60" x2="538" y2="60" stroke="#8073ac" stroke-width="2"/>
<text x="597" y="77.0" fill="#b35806" font-family="Verdana" font-size="12">1,1</text>
<line x1="538" y1="161" x2="538" y2="60" stroke="#8073ac" stroke-width="2"/>
<text x="543.0" y="102" fill="#b35806" font-family="Verdana" font-size="12">0,N</text>
<g id="association-A été dégustée">
	<path d="M 577 35 a 14 14 90 0 1 14 14 V 60 h -106 V 49 a 14 14 90 0 1 14 -14" fill="#b2abd2" stroke="#b2abd2" stroke-width="0"/>
	<path d="M 591 60.0 v 11 a 14 14 90 0 1 -14 14 H 499 a 14 14 90 0 1 -14 -14 V 60.0 H 106" fill="#d8daeb" stroke="#d8daeb" stroke-width="0"/>
	<rect x="485" y="35" width="106" height="50" fill="none" rx="14" stroke="#8073ac" stroke-width="2"/>
	<line x1="485" y1="60" x2="591" y2="60" stroke="#8073ac" stroke-width="1"/>
	<text x="492" y="52.7" fill="#000000" font-family="Verdana" font-size="12">A été dégustée</text>
</g>

<!-- Entity Région -->
<g id="entity-Région">
	<g id="frame-Région">
		<rect x="20" y="245" width="80" height="25" fill="#fdb863" stroke="#fdb863" stroke-width="0"/>
		<rect x="20" y="270.0" width="80" height="59" fill="#fee0b6" stroke="#fee0b6" stroke-width="0"/>
		<rect x="20" y="245" width="80" height="84" fill="none" stroke="#e08214" stroke-width="2"/>
		<line x1="20" y1="270" x2="100" y2="270" stroke="#e08214" stroke-width="1"/>
	</g>
	<text x="39" y="262.7" fill="#000000" font-family="Verdana" font-size="12">Région</text>
	<text x="25" y="287.8" fill="#000000" font-family="Verdana" font-size="12">idRégion</text>
	<line x1="25" y1="290" x2="78" y2="290" stroke="#000000" stroke-width="1"/>
	<text x="25" y="304.8" fill="#000000" font-family="Verdana" font-size="12">nomRégion</text>
	<text x="25" y="321.8" fill="#000000" font-family="Verdana" font-size="12">appellation</text>
</g>

<!-- Entity Cuvée -->
<g id="entity-Cuvée">
	<g id="frame-Cuvée">
		<rect x="22" y="26" width="76" height="25" fill="#fdb863" stroke="#fdb863" stroke-width="0"/>
		<rect x="22" y="51.0" width="76" height="43" fill="#fee0b6" stroke="#fee0b6" stroke-width="0"/>
		<rect x="22" y="26" width="76" height="68" fill="none" stroke="#e08214" stroke-width="2"/>
		<line x1="22" y1="51" x2="98" y2="51" stroke="#e08214" stroke-width="1"/>
	</g>
	<text x="41" y="43.7" fill="#000000" font-family="Verdana" font-size="12">Cuvée</text>
	<text x="27" y="68.8" fill="#000000" font-family="Verdana" font-size="12">idCuvée</text>
	<line x1="27" y1="71" x2="76" y2="71" stroke="#000000" stroke-width="1"/>
	<text x="27" y="85.8" fill="#000000" font-family="Verdana" font-size="12">nomCuvée</text>
</g>

<!-- Entity Domaine -->
<g id="entity-Domaine">
	<g id="frame-Domaine">
		<rect x="143" y="110" width="92" height="25" fill="#fdb863" stroke="#fdb863" stroke-width="0"/>
		<rect x="143" y="135.0" width="92" height="77" fill="#fee0b6" stroke="#fee0b6" stroke-width="0"/>
		<rect x="143" y="110" width="92" height="102" fill="none" stroke="#e08214" stroke-width="2"/>
		<line x1="143" y1="135" x2="235" y2="135" stroke="#e08214" stroke-width="1"/>
	</g>
	<text x="162" y="127.7" fill="#000000" font-family="Verdana" font-size="12">Domaine</text>
	<text x="148" y="152.7" fill="#000000" font-family="Verdana" font-size="12">idDomaine</text>
	<line x1="148" y1="155" x2="213" y2="155" stroke="#000000" stroke-width="1"/>
	<text x="148" y="169.8" fill="#000000" font-family="Verdana" font-size="12">idRegion</text>
	<text x="148" y="186.8" fill="#000000" font-family="Verdana" font-size="12">idCuvée</text>
	<text x="148" y="203.8" fill="#000000" font-family="Verdana" font-size="12">nomDomaine</text>
</g>

<!-- Entity Site -->
<g id="entity-Site">
	<g id="frame-Site">
		<rect x="664" y="245" width="88" height="25" fill="#fdb863" stroke="#fdb863" stroke-width="0"/>
		<rect x="664" y="270.0" width="88" height="59" fill="#fee0b6" stroke="#fee0b6" stroke-width="0"/>
		<rect x="664" y="245" width="88" height="84" fill="none" stroke="#e08214" stroke-width="2"/>
		<line x1="664" y1="270" x2="752" y2="270" stroke="#e08214" stroke-width="1"/>
	</g>
	<text x="696" y="262.7" fill="#000000" font-family="Verdana" font-size="12">Site</text>
	<text x="669" y="287.8" fill="#000000" font-family="Verdana" font-size="12">idSite</text>
	<line x1="669" y1="290" x2="704" y2="290" stroke="#000000" stroke-width="1"/>
	<text x="669" y="304.8" fill="#000000" font-family="Verdana" font-size="12">lieuStockage</text>
	<text x="669" y="321.8" fill="#000000" font-family="Verdana" font-size="12">précision</text>
</g>

<!-- Entity Stockage -->
<g id="entity-Stockage">
	<g id="frame-Stockage">
		<rect x="491" y="110" width="94" height="25" fill="#fdb863" stroke="#fdb863" stroke-width="0"/>
		<rect x="491" y="135.0" width="94" height="77" fill="#fee0b6" stroke="#fee0b6" stroke-width="0"/>
		<rect x="491" y="110" width="94" height="102" fill="none" stroke="#e08214" stroke-width="2"/>
		<line x1="491" y1="135" x2="585" y2="135" stroke="#e08214" stroke-width="1"/>
	</g>
	<text x="510" y="127.7" fill="#000000" font-family="Verdana" font-size="12">Stockage</text>
	<text x="496" y="152.7" fill="#000000" font-family="Verdana" font-size="12">idStockage</text>
	<line x1="496" y1="155" x2="563" y2="155" stroke="#000000" stroke-width="1"/>
	<text x="496" y="169.8" fill="#000000" font-family="Verdana" font-size="12">idLotBouteille</text>
	<text x="496" y="186.8" fill="#000000" font-family="Verdana" font-size="12">idSite</text>
	<text x="496" y="203.8" fill="#000000" font-family="Verdana" font-size="12">nombre</text>
</g>

<!-- Entity LotBouteille -->
<g id="entity-LotBouteille">
	<g id="frame-LotBouteille">
		<rect x="308" y="211" width="110" height="25" fill="#fdb863" stroke="#fdb863" stroke-width="0"/>
		<rect x="308" y="236.0" width="110" height="127" fill="#fee0b6" stroke="#fee0b6" stroke-width="0"/>
		<rect x="308" y="211" width="110" height="152" fill="none" stroke="#e08214" stroke-width="2"/>
		<line x1="308" y1="236" x2="418" y2="236" stroke="#e08214" stroke-width="1"/>
	</g>
	<text x="327" y="228.7" fill="#000000" font-family="Verdana" font-size="12">LotBouteille</text>
	<text x="313" y="253.7" fill="#000000" font-family="Verdana" font-size="12">idLotBouteille</text>
	<line x1="313" y1="256" x2="396" y2="256" stroke="#000000" stroke-width="1"/>
	<text x="313" y="270.7" fill="#000000" font-family="Verdana" font-size="12">idCommentaires</text>
	<text x="313" y="287.8" fill="#000000" font-family="Verdana" font-size="12">idDomaine</text>
	<text x="313" y="304.8" fill="#000000" font-family="Verdana" font-size="12">couleur</text>
	<text x="313" y="321.8" fill="#000000" font-family="Verdana" font-size="12">volume</text>
	<text x="313" y="338.8" fill="#000000" font-family="Verdana" font-size="12">millésime</text>
	<text x="313" y="355.8" fill="#000000" font-family="Verdana" font-size="12">degré</text>
</g>

<!-- Entity Commentaires -->
<g id="entity-Commentaires">
	<g id="frame-Commentaires">
		<rect x="288" y="18" width="150" height="25" fill="#fdb863" stroke="#fdb863" stroke-width="0"/>
		<rect x="288" y="43.0" width="150" height="59" fill="#fee0b6" stroke="#fee0b6" stroke-width="0"/>
		<rect x="288" y="18" width="150" height="84" fill="none" stroke="#e08214" stroke-width="2"/>
		<line x1="288" y1="43" x2="438" y2="43" stroke="#e08214" stroke-width="1"/>
	</g>
	<text x="318" y="35.7" fill="#000000" font-family="Verdana" font-size="12">Commentaires</text>
	<text x="293" y="60.8" fill="#000000" font-family="Verdana" font-size="12">idCommentaires</text>
	<line x1="293" y1="63" x2="392" y2="63" stroke="#000000" stroke-width="1"/>
	<text x="293" y="77.8" fill="#000000" font-family="Verdana" font-size="12">prix</text>
	<text x="293" y="94.8" fill="#000000" font-family="Verdana" font-size="12">descriptionDégustation</text>
</g>

<!-- Entity Dégustation -->
<g id="entity-Dégustation">
	<g id="frame-Dégustation">
		<rect x="623" y="9" width="170" height="25" fill="#fdb863" stroke="#fdb863" stroke-width="0"/>
		<rect x="623" y="34.0" width="170" height="77" fill="#fee0b6" stroke="#fee0b6" stroke-width="0"/>
		<rect x="623" y="9" width="170" height="102" fill="none" stroke="#e08214" stroke-width="2"/>
		<line x1="623" y1="34" x2="793" y2="34" stroke="#e08214" stroke-width="1"/>
	</g>
	<text x="671" y="26.7" fill="#000000" font-family="Verdana" font-size="12">Dégustation</text>
	<text x="628" y="51.7" fill="#000000" font-family="Verdana" font-size="12">idDégustation</text>
	<line x1="628" y1="54" x2="712" y2="54" stroke="#000000" stroke-width="1"/>
	<text x="628" y="68.8" fill="#000000" font-family="Verdana" font-size="12">idStockage</text>
	<text x="628" y="85.8" fill="#000000" font-family="Verdana" font-size="12">dateDégustation</text>
	<text x="628" y="102.8" fill="#000000" font-family="Verdana" font-size="12">commentairesDégustation</text>
</g>
</svg>