<?xml version="1.0" standalone="no"?>
<!DOCTYPE svg PUBLIC "-//W3C//DTD SVG 1.1//EN"
"http://www.w3.org/Graphics/SVG/1.1/DTD/svg11.dtd">

<svg width="326" height="86" view_box="0 0 326 86"
xmlns="http://www.w3.org/2000/svg"
xmlns:link="http://www.w3.org/1999/xlink">\n\n<desc>Généré par Mocodo 2.3.7 le Wed, 27 May 2020 09:03:41</desc>

<rect id="frame" x="0" y="0" width="326" height="86" fill="#ffffbf" stroke="none" stroke-width="0"/>

<!-- Association Herite -->
<line x1="269" y1="43" x2="163" y2="43" stroke="#f46d43" stroke-width="2"/>
<text x="195" y="60.0" fill="#3288bd" font-family="Verdana" font-size="12">0,1</text>
<line x1="57" y1="43" x2="163" y2="43" stroke="#f46d43" stroke-width="2"/>
<text x="110" y="60.0" fill="#3288bd" font-family="Verdana" font-size="12">0,N</text>
<g id="association-Herite">
	<path d="M 175 18 a 14 14 90 0 1 14 14 V 43 h -52 V 32 a 14 14 90 0 1 14 -14" fill="#fdae61" stroke="#fdae61" stroke-width="0"/>
	<path d="M 189 43.0 v 11 a 14 14 90 0 1 -14 14 H 151 a 14 14 90 0 1 -14 -14 V 43.0 H 52" fill="#fee08b" stroke="#fee08b" stroke-width="0"/>
	<rect x="137" y="18" width="52" height="50" fill="none" rx="14" stroke="#f46d43" stroke-width="2"/>
	<line x1="137" y1="43" x2="189" y2="43" stroke="#f46d43" stroke-width="1"/>
	<text x="144" y="35.7" fill="#000000" font-family="Verdana" font-size="12">Herite</text>
</g>

<!-- Entity Classe_Enfant -->
<g id="entity-Classe_Enfant">
	<g id="frame-Classe_Enfant">
		<rect x="9" y="9" width="96" height="25" fill="#abdda4" stroke="#abdda4" stroke-width="0"/>
		<rect x="9" y="34.0" width="96" height="43" fill="#e6f598" stroke="#e6f598" stroke-width="0"/>
		<rect x="9" y="9" width="96" height="68" fill="none" stroke="#66c2a5" stroke-width="2"/>
		<line x1="9" y1="34" x2="105" y2="34" stroke="#66c2a5" stroke-width="1"/>
	</g>
	<text x="14" y="26.7" fill="#000000" font-family="Verdana" font-size="12">Classe_Enfant</text>
	<text x="14" y="51.8" fill="#000000" font-family="Verdana" font-size="12">id</text>
	<line x1="14" y1="54" x2="26" y2="54" stroke="#000000" stroke-width="1"/>
	<text x="14" y="68.8" fill="#000000" font-family="Verdana" font-size="12">description</text>
</g>

<!-- Entity Classe_Parent -->
<g id="entity-Classe_Parent">
	<g id="frame-Classe_Parent">
		<rect x="221" y="9" width="96" height="25" fill="#abdda4" stroke="#abdda4" stroke-width="0"/>
		<rect x="221" y="34.0" width="96" height="43" fill="#e6f598" stroke="#e6f598" stroke-width="0"/>
		<rect x="221" y="9" width="96" height="68" fill="none" stroke="#66c2a5" stroke-width="2"/>
		<line x1="221" y1="34" x2="317" y2="34" stroke="#66c2a5" stroke-width="1"/>
	</g>
	<text x="226" y="26.7" fill="#000000" font-family="Verdana" font-size="12">Classe_Parent</text>
	<text x="226" y="51.8" fill="#000000" font-family="Verdana" font-size="12">id</text>
	<line x1="226" y1="54" x2="238" y2="54" stroke="#000000" stroke-width="1"/>
	<text x="226" y="68.8" fill="#000000" font-family="Verdana" font-size="12">description</text>
</g>
</svg>