<?xml version="1.0" standalone="no"?>
<!DOCTYPE svg PUBLIC "-//W3C//DTD SVG 1.1//EN"
"http://www.w3.org/Graphics/SVG/1.1/DTD/svg11.dtd">

<svg width="672" height="423" view_box="0 0 672 423"
xmlns="http://www.w3.org/2000/svg"
xmlns:link="http://www.w3.org/1999/xlink">\n\n<desc>Généré par Mocodo 2.3.7 le Thu, 28 May 2020 14:21:01</desc>

<rect id="frame" x="0" y="0" width="672" height="423" fill="#ffffbf" stroke="none" stroke-width="0"/>

<!-- Association De l'appellation -->
<line x1="191" y1="160" x2="191" y2="51" stroke="#f46d43" stroke-width="2"/>
<text x="196.0" y="93" fill="#3288bd" font-family="Verdana" font-size="12">1,1</text>
<line x1="60" y1="51" x2="191" y2="51" stroke="#f46d43" stroke-width="2"/>
<text x="110" y="68.0" fill="#3288bd" font-family="Verdana" font-size="12">0,N</text>
<g id="association-De l'appellation">
	<path d="M 231 26 a 14 14 90 0 1 14 14 V 51 h -108 V 40 a 14 14 90 0 1 14 -14" fill="#fdae61" stroke="#fdae61" stroke-width="0"/>
	<path d="M 245 51.0 v 11 a 14 14 90 0 1 -14 14 H 151 a 14 14 90 0 1 -14 -14 V 51.0 H 108" fill="#fee08b" stroke="#fee08b" stroke-width="0"/>
	<rect x="137" y="26" width="108" height="50" fill="none" rx="14" stroke="#f46d43" stroke-width="2"/>
	<line x1="137" y1="51" x2="245" y2="51" stroke="#f46d43" stroke-width="1"/>
	<text x="144" y="43.7" fill="#000000" font-family="Verdana" font-size="12">De l'appellation</text>
</g>

<!-- Association Admet pour stockage -->
<line x1="314" y1="329" x2="465" y2="329" stroke="#f46d43" stroke-width="2"/>
<text x="366" y="346.0" fill="#3288bd" font-family="Verdana" font-size="12">1,N</text>
<line x1="616" y1="329" x2="465" y2="329" stroke="#f46d43" stroke-width="2"/>
<text x="543" y="346.0" fill="#3288bd" font-family="Verdana" font-size="12">1,1</text>
<g id="association-Admet pour stockage">
	<path d="M 523 304 a 14 14 90 0 1 14 14 V 329 h -144 V 318 a 14 14 90 0 1 14 -14" fill="#fdae61" stroke="#fdae61" stroke-width="0"/>
	<path d="M 537 329.0 v 11 a 14 14 90 0 1 -14 14 H 407 a 14 14 90 0 1 -14 -14 V 329.0 H 144" fill="#fee08b" stroke="#fee08b" stroke-width="0"/>
	<rect x="393" y="304" width="144" height="50" fill="none" rx="14" stroke="#f46d43" stroke-width="2"/>
	<line x1="393" y1="329" x2="537" y2="329" stroke="#f46d43" stroke-width="1"/>
	<text x="400" y="321.7" fill="#000000" font-family="Verdana" font-size="12">Admet pour stockage</text>
</g>

<!-- Association De la cuvée -->
<line x1="191" y1="160" x2="314" y2="160" stroke="#f46d43" stroke-width="2"/>
<text x="241" y="177.0" fill="#3288bd" font-family="Verdana" font-size="12">0,1</text>
<line x1="465" y1="160" x2="314" y2="160" stroke="#f46d43" stroke-width="2"/>
<text x="408" y="177.0" fill="#3288bd" font-family="Verdana" font-size="12">0,N</text>
<g id="association-De la cuvée">
	<path d="M 343 135 a 14 14 90 0 1 14 14 V 160 h -86 V 149 a 14 14 90 0 1 14 -14" fill="#fdae61" stroke="#fdae61" stroke-width="0"/>
	<path d="M 357 160.0 v 11 a 14 14 90 0 1 -14 14 H 285 a 14 14 90 0 1 -14 -14 V 160.0 H 86" fill="#fee08b" stroke="#fee08b" stroke-width="0"/>
	<rect x="271" y="135" width="86" height="50" fill="none" rx="14" stroke="#f46d43" stroke-width="2"/>
	<line x1="271" y1="160" x2="357" y2="160" stroke="#f46d43" stroke-width="1"/>
	<text x="278" y="152.7" fill="#000000" font-family="Verdana" font-size="12">De la cuvée</text>
</g>

<!-- Association Du domaine -->
<line x1="314" y1="329" x2="191" y2="329" stroke="#f46d43" stroke-width="2"/>
<text x="241" y="346.0" fill="#3288bd" font-family="Verdana" font-size="12">1,1</text>
<line x1="191" y1="160" x2="191" y2="329" stroke="#f46d43" stroke-width="2"/>
<text x="196.0" y="236" fill="#3288bd" font-family="Verdana" font-size="12">0,N</text>
<g id="association-Du domaine">
	<path d="M 221 304 a 14 14 90 0 1 14 14 V 329 h -88 V 318 a 14 14 90 0 1 14 -14" fill="#fdae61" stroke="#fdae61" stroke-width="0"/>
	<path d="M 235 329.0 v 11 a 14 14 90 0 1 -14 14 H 161 a 14 14 90 0 1 -14 -14 V 329.0 H 88" fill="#fee08b" stroke="#fee08b" stroke-width="0"/>
	<rect x="147" y="304" width="88" height="50" fill="none" rx="14" stroke="#f46d43" stroke-width="2"/>
	<line x1="147" y1="329" x2="235" y2="329" stroke="#f46d43" stroke-width="1"/>
	<text x="154" y="321.7" fill="#000000" font-family="Verdana" font-size="12">Du domaine</text>
</g>

<!-- Association Stocké à -->
<line x1="616" y1="329" x2="616" y2="160" stroke="#f46d43" stroke-width="2"/>
<text x="621.0" y="279" fill="#3288bd" font-family="Verdana" font-size="12">1,1</text>
<line x1="616" y1="51" x2="616" y2="160" stroke="#f46d43" stroke-width="2"/>
<text x="621.0" y="102" fill="#3288bd" font-family="Verdana" font-size="12">0,N</text>
<g id="association-Stocké à">
	<path d="M 636 135 a 14 14 90 0 1 14 14 V 160 h -68 V 149 a 14 14 90 0 1 14 -14" fill="#fdae61" stroke="#fdae61" stroke-width="0"/>
	<path d="M 650 160.0 v 11 a 14 14 90 0 1 -14 14 H 596 a 14 14 90 0 1 -14 -14 V 160.0 H 68" fill="#fee08b" stroke="#fee08b" stroke-width="0"/>
	<rect x="582" y="135" width="68" height="50" fill="none" rx="14" stroke="#f46d43" stroke-width="2"/>
	<line x1="582" y1="160" x2="650" y2="160" stroke="#f46d43" stroke-width="1"/>
	<text x="589" y="152.7" fill="#000000" font-family="Verdana" font-size="12">Stocké à</text>
</g>

<!-- Association Dans la région -->
<line x1="191" y1="160" x2="60" y2="160" stroke="#f46d43" stroke-width="2"/>
<text x="120" y="177.0" fill="#3288bd" font-family="Verdana" font-size="12">1,1</text>
<line x1="60" y1="329" x2="60" y2="160" stroke="#f46d43" stroke-width="2"/>
<text x="65.0" y="287" fill="#3288bd" font-family="Verdana" font-size="12">0,N</text>
<g id="association-Dans la région">
	<path d="M 97 135 a 14 14 90 0 1 14 14 V 160 h -102 V 149 a 14 14 90 0 1 14 -14" fill="#fdae61" stroke="#fdae61" stroke-width="0"/>
	<path d="M 111 160.0 v 11 a 14 14 90 0 1 -14 14 H 23 a 14 14 90 0 1 -14 -14 V 160.0 H 102" fill="#fee08b" stroke="#fee08b" stroke-width="0"/>
	<rect x="9" y="135" width="102" height="50" fill="none" rx="14" stroke="#f46d43" stroke-width="2"/>
	<line x1="9" y1="160" x2="111" y2="160" stroke="#f46d43" stroke-width="1"/>
	<text x="16" y="152.7" fill="#000000" font-family="Verdana" font-size="12">Dans la région</text>
</g>

<!-- Entity Appellation -->
<g id="entity-Appellation">
	<g id="frame-Appellation">
		<rect x="15" y="9" width="90" height="25" fill="#abdda4" stroke="#abdda4" stroke-width="0"/>
		<rect x="15" y="34.0" width="90" height="59" fill="#e6f598" stroke="#e6f598" stroke-width="0"/>
		<rect x="15" y="9" width="90" height="84" fill="none" stroke="#66c2a5" stroke-width="2"/>
		<line x1="15" y1="34" x2="105" y2="34" stroke="#66c2a5" stroke-width="1"/>
	</g>
	<text x="26" y="26.7" fill="#000000" font-family="Verdana" font-size="12">Appellation</text>
	<text x="20" y="51.8" fill="#000000" font-family="Verdana" font-size="12">idAppellation</text>
	<line x1="20" y1="54" x2="99" y2="54" stroke="#000000" stroke-width="1"/>
	<text x="20" y="68.8" fill="#000000" font-family="Verdana" font-size="12">type</text>
	<text x="20" y="85.8" fill="#000000" font-family="Verdana" font-size="12">nom</text>
</g>

<!-- Entity Région -->
<g id="entity-Région">
	<g id="frame-Région">
		<rect x="28" y="295" width="64" height="25" fill="#abdda4" stroke="#abdda4" stroke-width="0"/>
		<rect x="28" y="320.0" width="64" height="43" fill="#e6f598" stroke="#e6f598" stroke-width="0"/>
		<rect x="28" y="295" width="64" height="68" fill="none" stroke="#66c2a5" stroke-width="2"/>
		<line x1="28" y1="320" x2="92" y2="320" stroke="#66c2a5" stroke-width="1"/>
	</g>
	<text x="39" y="312.7" fill="#000000" font-family="Verdana" font-size="12">Région</text>
	<text x="33" y="337.8" fill="#000000" font-family="Verdana" font-size="12">idRégion</text>
	<line x1="33" y1="340" x2="86" y2="340" stroke="#000000" stroke-width="1"/>
	<text x="33" y="354.8" fill="#000000" font-family="Verdana" font-size="12">nom</text>
</g>

<!-- Entity Site -->
<g id="entity-Site">
	<g id="frame-Site">
		<rect x="577" y="17" width="78" height="25" fill="#abdda4" stroke="#abdda4" stroke-width="0"/>
		<rect x="577" y="42.0" width="78" height="43" fill="#e6f598" stroke="#e6f598" stroke-width="0"/>
		<rect x="577" y="17" width="78" height="68" fill="none" stroke="#66c2a5" stroke-width="2"/>
		<line x1="577" y1="42" x2="655" y2="42" stroke="#66c2a5" stroke-width="1"/>
	</g>
	<text x="604" y="34.7" fill="#000000" font-family="Verdana" font-size="12">Site</text>
	<text x="582" y="59.8" fill="#000000" font-family="Verdana" font-size="12">idSite</text>
	<line x1="582" y1="62" x2="617" y2="62" stroke="#000000" stroke-width="1"/>
	<text x="582" y="76.8" fill="#000000" font-family="Verdana" font-size="12">description</text>
</g>

<!-- Entity LotBouteille -->
<g id="entity-LotBouteille">
	<g id="frame-LotBouteille">
		<rect x="267" y="244" width="94" height="25" fill="#abdda4" stroke="#abdda4" stroke-width="0"/>
		<rect x="267" y="269.0" width="94" height="145" fill="#e6f598" stroke="#e6f598" stroke-width="0"/>
		<rect x="267" y="244" width="94" height="170" fill="none" stroke="#66c2a5" stroke-width="2"/>
		<line x1="267" y1="269" x2="361" y2="269" stroke="#66c2a5" stroke-width="1"/>
	</g>
	<text x="278" y="261.7" fill="#000000" font-family="Verdana" font-size="12">LotBouteille</text>
	<text x="272" y="286.7" fill="#000000" font-family="Verdana" font-size="12">idLotBouteille</text>
	<line x1="272" y1="289" x2="355" y2="289" stroke="#000000" stroke-width="1"/>
	<text x="272" y="303.7" fill="#000000" font-family="Verdana" font-size="12">volume</text>
	<text x="272" y="320.7" fill="#000000" font-family="Verdana" font-size="12">degré</text>
	<text x="272" y="337.8" fill="#000000" font-family="Verdana" font-size="12">prix</text>
	<text x="272" y="354.8" fill="#000000" font-family="Verdana" font-size="12">couleur</text>
	<text x="272" y="371.8" fill="#000000" font-family="Verdana" font-size="12">commentaire</text>
	<text x="272" y="388.8" fill="#000000" font-family="Verdana" font-size="12">millésime</text>
	<text x="272" y="405.8" fill="#000000" font-family="Verdana" font-size="12">idDomaine</text>
</g>

<!-- Entity Cuvée -->
<g id="entity-Cuvée">
	<g id="frame-Cuvée">
		<rect x="435" y="126" width="60" height="25" fill="#abdda4" stroke="#abdda4" stroke-width="0"/>
		<rect x="435" y="151.0" width="60" height="43" fill="#e6f598" stroke="#e6f598" stroke-width="0"/>
		<rect x="435" y="126" width="60" height="68" fill="none" stroke="#66c2a5" stroke-width="2"/>
		<line x1="435" y1="151" x2="495" y2="151" stroke="#66c2a5" stroke-width="1"/>
	</g>
	<text x="446" y="143.7" fill="#000000" font-family="Verdana" font-size="12">Cuvée</text>
	<text x="440" y="168.8" fill="#000000" font-family="Verdana" font-size="12">idCuvée</text>
	<line x1="440" y1="171" x2="489" y2="171" stroke="#000000" stroke-width="1"/>
	<text x="440" y="185.8" fill="#000000" font-family="Verdana" font-size="12">nom</text>
</g>

<!-- Entity Stockage -->
<g id="entity-Stockage">
	<g id="frame-Stockage">
		<rect x="569" y="287" width="94" height="25" fill="#abdda4" stroke="#abdda4" stroke-width="0"/>
		<rect x="569" y="312.0" width="94" height="59" fill="#e6f598" stroke="#e6f598" stroke-width="0"/>
		<rect x="569" y="287" width="94" height="84" fill="none" stroke="#66c2a5" stroke-width="2"/>
		<line x1="569" y1="312" x2="663" y2="312" stroke="#66c2a5" stroke-width="1"/>
	</g>
	<text x="588" y="304.7" fill="#000000" font-family="Verdana" font-size="12">Stockage</text>
	<text x="574" y="329.8" fill="#000000" font-family="Verdana" font-size="12">idLotBouteille</text>
	<line x1="574" y1="332" x2="657" y2="332" stroke="#000000" stroke-width="1"/>
	<text x="574" y="346.8" fill="#000000" font-family="Verdana" font-size="12">idSite</text>
	<line x1="574" y1="349" x2="609" y2="349" stroke="#000000" stroke-width="1"/>
	<text x="574" y="363.8" fill="#000000" font-family="Verdana" font-size="12">nombre</text>
</g>

<!-- Entity Domaine -->
<g id="entity-Domaine">
	<g id="frame-Domaine">
		<rect x="146" y="101" width="90" height="25" fill="#abdda4" stroke="#abdda4" stroke-width="0"/>
		<rect x="146" y="126.0" width="90" height="93" fill="#e6f598" stroke="#e6f598" stroke-width="0"/>
		<rect x="146" y="101" width="90" height="118" fill="none" stroke="#66c2a5" stroke-width="2"/>
		<line x1="146" y1="126" x2="236" y2="126" stroke="#66c2a5" stroke-width="1"/>
	</g>
	<text x="164" y="118.7" fill="#000000" font-family="Verdana" font-size="12">Domaine</text>
	<text x="151" y="143.7" fill="#000000" font-family="Verdana" font-size="12">idDomaine</text>
	<line x1="151" y1="146" x2="216" y2="146" stroke="#000000" stroke-width="1"/>
	<text x="151" y="160.8" fill="#000000" font-family="Verdana" font-size="12">nom</text>
	<text x="151" y="177.8" fill="#000000" font-family="Verdana" font-size="12">idRégion</text>
	<text x="151" y="194.8" fill="#000000" font-family="Verdana" font-size="12">idCuvée</text>
	<text x="151" y="211.8" fill="#000000" font-family="Verdana" font-size="12">idAppellation</text>
</g>
</svg>