<?xml version="1.0" standalone="no"?>
<!DOCTYPE svg PUBLIC "-//W3C//DTD SVG 1.1//EN"
"http://www.w3.org/Graphics/SVG/1.1/DTD/svg11.dtd">

<svg width="96" height="161" view_box="0 0 96 161"
xmlns="http://www.w3.org/2000/svg"
xmlns:link="http://www.w3.org/1999/xlink">\n\n<desc>Généré par Mocodo 2.3.7 le Wed, 27 May 2020 07:55:00</desc>

<rect id="frame" x="0" y="0" width="96" height="161" fill="#ffffbf" stroke="none" stroke-width="0"/>

<!-- Association Herite -->
<path d="M48 43 C 90.6666666667 77.0 90.6666666667 105.0 48 127" fill="none" stroke="#f46d43" stroke-width="2"/>
<text x="50.0" y="94" fill="#3288bd" font-family="Verdana" font-size="12">0,N</text>
<path d="M48 43 C 5.33333333333 77.0 5.33333333333 105.0 48 127" fill="none" stroke="#f46d43" stroke-width="2"/>
<text x="24.0" y="94" fill="#3288bd" font-family="Verdana" font-size="12">0,N</text>
<g id="association-Herite">
	<path d="M 60 102 a 14 14 90 0 1 14 14 V 127 h -52 V 116 a 14 14 90 0 1 14 -14" fill="#fdae61" stroke="#fdae61" stroke-width="0"/>
	<path d="M 74 127.0 v 11 a 14 14 90 0 1 -14 14 H 36 a 14 14 90 0 1 -14 -14 V 127.0 H 52" fill="#fee08b" stroke="#fee08b" stroke-width="0"/>
	<rect x="22" y="102" width="52" height="50" fill="none" rx="14" stroke="#f46d43" stroke-width="2"/>
	<line x1="22" y1="127" x2="74" y2="127" stroke="#f46d43" stroke-width="1"/>
	<text x="29" y="119.7" fill="#000000" font-family="Verdana" font-size="12">Herite</text>
</g>

<!-- Entity Classe -->
<g id="entity-Classe">
	<g id="frame-Classe">
		<rect x="9" y="9" width="78" height="25" fill="#abdda4" stroke="#abdda4" stroke-width="0"/>
		<rect x="9" y="34.0" width="78" height="43" fill="#e6f598" stroke="#e6f598" stroke-width="0"/>
		<rect x="9" y="9" width="78" height="68" fill="none" stroke="#66c2a5" stroke-width="2"/>
		<line x1="9" y1="34" x2="87" y2="34" stroke="#66c2a5" stroke-width="1"/>
	</g>
	<text x="28" y="26.7" fill="#000000" font-family="Verdana" font-size="12">Classe</text>
	<text x="14" y="51.8" fill="#000000" font-family="Verdana" font-size="12">id</text>
	<line x1="14" y1="54" x2="26" y2="54" stroke="#000000" stroke-width="1"/>
	<text x="14" y="68.8" fill="#000000" font-family="Verdana" font-size="12">description</text>
</g>
</svg>